TITLE "134.600, flac"
FILE "134.600.flac" WAVE

TRACK 01 AUDIO
TITLE "2020.02.06-05:59.51:956613"
INDEX 01 00:51:47

TRACK 02 AUDIO
TITLE "2020.02.06-06:01.05:531380"
INDEX 00 00:59:30
INDEX 01 02:05:15

TRACK 03 AUDIO
TITLE "2020.02.06-06:03.09:411550"
INDEX 00 02:13:25
INDEX 01 04:09:06

TRACK 04 AUDIO
TITLE "2020.02.06-06:03.14:773135"
INDEX 00 04:12:67
INDEX 01 04:14:33

TRACK 05 AUDIO
TITLE "2020.02.06-06:03.20:555312"
INDEX 00 04:19:62
INDEX 01 04:20:17

TRACK 06 AUDIO
TITLE "2020.02.06-06:03.33:711411"
INDEX 00 04:32:53
INDEX 01 04:33:28

TRACK 07 AUDIO
TITLE "2020.02.06-06:03.38:216693"
INDEX 00 04:37:42
INDEX 01 04:37:66

TRACK 08 AUDIO
TITLE "2020.02.06-06:03.45:051560"
INDEX 00 04:43:68
INDEX 01 04:44:54

TRACK 09 AUDIO
TITLE "2020.02.06-06:04.08:032750"
INDEX 00 05:03:67
INDEX 01 05:07:52

TRACK 10 AUDIO
TITLE "2020.02.06-06:04.22:251525"
INDEX 00 05:16:13
INDEX 01 05:21:69

TRACK 11 AUDIO
TITLE "2020.02.06-06:04.30:032970"
INDEX 00 05:28:72
INDEX 01 05:29:53

TRACK 12 AUDIO
TITLE "2020.02.06-06:04.38:993902"
INDEX 00 05:35:47
INDEX 01 05:38:50

TRACK 13 AUDIO
TITLE "2020.02.06-06:05.11:351555"
INDEX 00 05:50:11
INDEX 01 06:11:01

TRACK 14 AUDIO
TITLE "2020.02.06-06:05.18:471533"
INDEX 00 06:15:42
INDEX 01 06:18:10

TRACK 15 AUDIO
TITLE "2020.02.06-06:05.26:371516"
INDEX 00 06:25:22
INDEX 01 06:26:03

TRACK 16 AUDIO
TITLE "2020.02.06-06:06.33:811507"
INDEX 00 06:39:63
INDEX 01 07:33:36

TRACK 17 AUDIO
TITLE "2020.02.06-06:07.27:891517"
INDEX 00 07:40:55
INDEX 01 08:27:42

TRACK 18 AUDIO
TITLE "2020.02.06-06:07.35:771466"
INDEX 00 08:35:16
INDEX 01 08:35:33

TRACK 19 AUDIO
TITLE "2020.02.06-06:08.43:251456"
INDEX 00 08:47:19
INDEX 01 09:42:69

TRACK 20 AUDIO
TITLE "2020.02.06-06:09.05:632064"
INDEX 00 09:49:27
INDEX 01 10:05:22

TRACK 21 AUDIO
TITLE "2020.02.06-06:09.15:131741"
INDEX 00 10:12:45
INDEX 01 10:14:60

TRACK 22 AUDIO
TITLE "2020.02.06-06:09.18:593251"
INDEX 00 10:18:10
INDEX 01 10:18:20

TRACK 23 AUDIO
TITLE "2020.02.06-06:09.28:514518"
INDEX 00 10:25:72
INDEX 01 10:28:14

TRACK 24 AUDIO
TITLE "2020.02.06-06:10.25:131938"
INDEX 00 10:37:15
INDEX 01 11:24:60

TRACK 25 AUDIO
TITLE "2020.02.06-06:10.46:151351"
INDEX 00 11:40:33
INDEX 01 11:45:61

TRACK 26 AUDIO
TITLE "2020.02.06-06:11.47:051559"
INDEX 00 11:52:51
INDEX 01 12:46:54

TRACK 27 AUDIO
TITLE "2020.02.06-06:11.51:051373"
INDEX 00 12:50:19
INDEX 01 12:50:54

TRACK 28 AUDIO
TITLE "2020.02.06-06:12.15:291486"
INDEX 00 12:54:63
INDEX 01 13:14:72

TRACK 29 AUDIO
TITLE "2020.02.06-06:12.22:471531"
INDEX 00 13:19:19
INDEX 01 13:22:10

TRACK 30 AUDIO
TITLE "2020.02.06-06:12.28:391488"
INDEX 00 13:26:70
INDEX 01 13:28:04

TRACK 31 AUDIO
TITLE "2020.02.06-06:12.32:671348"
INDEX 00 13:32:00
INDEX 01 13:32:25

TRACK 32 AUDIO
TITLE "2020.02.06-06:12.38:975610"
INDEX 00 13:38:18
INDEX 01 13:38:48

TRACK 33 AUDIO
TITLE "2020.02.06-06:12.50:011533"
INDEX 00 13:44:18
INDEX 01 13:49:51

TRACK 34 AUDIO
TITLE "2020.02.06-06:14.07:271532"
INDEX 00 14:06:31
INDEX 01 15:06:70

TRACK 35 AUDIO
TITLE "2020.02.06-06:14.23:471387"
INDEX 00 15:14:09
INDEX 01 15:23:10

TRACK 36 AUDIO
TITLE "2020.02.06-06:15.13:231493"
INDEX 00 15:33:36
INDEX 01 16:12:67

TRACK 37 AUDIO
TITLE "2020.02.06-06:15.23:311405"
INDEX 00 16:22:00
INDEX 01 16:22:73

TRACK 38 AUDIO
TITLE "2020.02.06-06:15.29:191641"
INDEX 00 16:27:58
INDEX 01 16:28:64

TRACK 39 AUDIO
TITLE "2020.02.06-06:16.43:551543"
INDEX 00 16:38:69
INDEX 01 17:43:16

TRACK 40 AUDIO
TITLE "2020.02.06-06:16.51:371625"
INDEX 00 17:47:00
INDEX 01 17:51:03

TRACK 41 AUDIO
TITLE "2020.02.06-06:16.59:911670"
INDEX 00 17:58:45
INDEX 01 17:59:43

TRACK 42 AUDIO
TITLE "2020.02.06-06:17.04:431381"
INDEX 00 18:02:70
INDEX 01 18:04:07

TRACK 43 AUDIO
TITLE "2020.02.06-06:17.25:891348"
INDEX 00 18:11:13
INDEX 01 18:25:42

TRACK 44 AUDIO
TITLE "2020.02.06-06:18.20:631509"
INDEX 00 18:32:49
INDEX 01 19:20:22

TRACK 45 AUDIO
TITLE "2020.02.06-06:18.30:411704"
INDEX 00 19:29:01
INDEX 01 19:30:06

TRACK 46 AUDIO
TITLE "2020.02.06-06:18.48:371360"
INDEX 00 19:45:36
INDEX 01 19:48:03

TRACK 47 AUDIO
TITLE "2020.02.06-06:19.05:751413"
INDEX 00 20:00:40
INDEX 01 20:05:31

TRACK 48 AUDIO
TITLE "2020.02.06-06:19.10:971628"
INDEX 00 20:09:39
INDEX 01 20:10:48

TRACK 49 AUDIO
TITLE "2020.02.06-06:21.01:357234"
INDEX 00 20:13:60
INDEX 01 22:01:02

TRACK 50 AUDIO
TITLE "2020.02.06-06:21.10:271683"
INDEX 00 22:05:45
INDEX 01 22:09:70

TRACK 51 AUDIO
TITLE "2020.02.06-06:21.41:411510"
INDEX 00 22:18:46
INDEX 01 22:41:06

TRACK 52 AUDIO
TITLE "2020.02.06-06:22.03:311379"
INDEX 00 23:01:40
INDEX 01 23:02:73

TRACK 53 AUDIO
TITLE "2020.02.06-06:23.13:013991"
INDEX 00 23:17:52
INDEX 01 24:12:51

TRACK 54 AUDIO
TITLE "2020.02.06-06:24.34:971449"
INDEX 00 24:21:00
INDEX 01 25:34:48

TRACK 55 AUDIO
TITLE "2020.02.06-06:25.12:291539"
INDEX 00 25:44:00
INDEX 01 26:11:72

TRACK 56 AUDIO
TITLE "2020.02.06-06:25.24:931363"
INDEX 00 26:24:21
INDEX 01 26:24:45

TRACK 57 AUDIO
TITLE "2020.02.06-06:25.28:795554"
INDEX 00 26:28:22
INDEX 01 26:28:35

TRACK 58 AUDIO
TITLE "2020.02.06-06:25.41:954358"
INDEX 00 26:32:00
INDEX 01 26:41:47

TRACK 59 AUDIO
TITLE "2020.02.06-06:26.03:391513"
INDEX 00 26:49:44
INDEX 01 27:03:04

TRACK 60 AUDIO
TITLE "2020.02.06-06:26.12:071381"
INDEX 00 27:09:46
INDEX 01 27:11:55

TRACK 61 AUDIO
TITLE "2020.02.06-06:26.14:131458"
INDEX 00 27:13:51
INDEX 01 27:13:60

TRACK 62 AUDIO
TITLE "2020.02.06-06:26.29:592086"
INDEX 00 27:18:03
INDEX 01 27:29:19

TRACK 63 AUDIO
TITLE "2020.02.06-06:26.54:376854"
INDEX 00 27:44:37
INDEX 01 27:54:03

TRACK 64 AUDIO
TITLE "2020.02.06-06:27.09:691399"
INDEX 00 28:03:57
INDEX 01 28:09:27

TRACK 65 AUDIO
TITLE "2020.02.06-06:27.16:832503"
INDEX 00 28:16:27
INDEX 01 28:16:37

TRACK 66 AUDIO
TITLE "2020.02.06-06:27.26:171519"
INDEX 00 28:21:10
INDEX 01 28:25:63

TRACK 67 AUDIO
TITLE "2020.02.06-06:27.39:551929"
INDEX 00 28:38:61
INDEX 01 28:39:16

TRACK 68 AUDIO
TITLE "2020.02.06-06:28.33:891450"
INDEX 00 28:44:30
INDEX 01 29:33:42

TRACK 69 AUDIO
TITLE "2020.02.06-06:29.42:295990"
INDEX 00 29:35:18
INDEX 01 30:41:72

TRACK 70 AUDIO
TITLE "2020.02.06-06:29.50:791471"
INDEX 00 30:48:44
INDEX 01 30:50:34

TRACK 71 AUDIO
TITLE "2020.02.06-06:30.00:632912"
INDEX 00 30:54:30
INDEX 01 31:00:22

TRACK 72 AUDIO
TITLE "2020.02.06-06:30.19:352277"
INDEX 00 31:16:28
INDEX 01 31:19:01

TRACK 73 AUDIO
TITLE "2020.02.06-06:31.46:852402"
INDEX 00 31:29:04
INDEX 01 32:46:39

TRACK 74 AUDIO
TITLE "2020.02.06-06:33.10:171366"
INDEX 00 33:00:37
INDEX 01 34:09:63

TRACK 75 AUDIO
TITLE "2020.02.06-06:33.42:911734"
INDEX 00 34:18:12
INDEX 01 34:42:43

TRACK 76 AUDIO
TITLE "2020.02.06-06:33.48:291385"
INDEX 00 34:47:55
INDEX 01 34:47:72

TRACK 77 AUDIO
TITLE "2020.02.06-06:34.30:332640"
INDEX 00 35:17:19
INDEX 01 35:30:00

TRACK 78 AUDIO
TITLE "2020.02.06-06:34.36:651595"
INDEX 00 35:34:60
INDEX 01 35:36:24

TRACK 79 AUDIO
TITLE "2020.02.06-06:35.21:053148"
INDEX 00 35:52:12
INDEX 01 36:20:54

TRACK 80 AUDIO
TITLE "2020.02.06-06:35.38:094176"
INDEX 00 36:28:14
INDEX 01 36:37:57

TRACK 81 AUDIO
TITLE "2020.02.06-06:36.21:991364"
INDEX 00 36:52:38
INDEX 01 37:21:49

TRACK 82 AUDIO
TITLE "2020.02.06-06:36.27:136867"
INDEX 00 37:26:57
INDEX 01 37:26:60

TRACK 83 AUDIO
TITLE "2020.02.06-06:37.05:111556"
INDEX 00 37:37:51
INDEX 01 38:04:58

TRACK 84 AUDIO
TITLE "2020.02.06-06:37.21:872134"
INDEX 00 38:19:48
INDEX 01 38:21:40

TRACK 85 AUDIO
TITLE "2020.02.06-06:37.26:053946"
INDEX 00 38:25:51
INDEX 01 38:25:54

TRACK 86 AUDIO
TITLE "2020.02.06-06:37.39:951569"
INDEX 00 38:36:32
INDEX 01 38:39:46

TRACK 87 AUDIO
TITLE "2020.02.06-06:37.57:151476"
INDEX 00 38:50:52
INDEX 01 38:56:61

TRACK 88 AUDIO
TITLE "2020.02.06-06:38.24:911448"
INDEX 00 39:13:43
INDEX 01 39:24:43

TRACK 89 AUDIO
TITLE "2020.02.06-06:38.37:851486"
INDEX 00 39:36:18
INDEX 01 39:37:39

TRACK 90 AUDIO
TITLE "2020.02.06-06:38.47:911539"
INDEX 00 39:41:00
INDEX 01 39:47:43

TRACK 91 AUDIO
TITLE "2020.02.06-06:39.28:352532"
INDEX 00 39:55:73
INDEX 01 40:28:01

TRACK 92 AUDIO
TITLE "2020.02.06-06:39.57:671482"
INDEX 00 40:40:55
INDEX 01 40:57:25

TRACK 93 AUDIO
TITLE "2020.02.06-06:40.56:771478"
INDEX 00 41:03:49
INDEX 01 41:56:33

TRACK 94 AUDIO
TITLE "2020.02.06-06:42.19:611510"
INDEX 00 42:04:01
INDEX 01 43:19:21

TRACK 95 AUDIO
TITLE "2020.02.06-06:42.47:391711"
INDEX 00 43:26:45
INDEX 01 43:47:04

TRACK 96 AUDIO
TITLE "2020.02.06-06:43.03:991526"
INDEX 00 43:56:12
INDEX 01 44:03:49

TRACK 97 AUDIO
TITLE "2020.02.06-06:43.10:171498"
INDEX 00 44:07:73
INDEX 01 44:09:63

TRACK 98 AUDIO
TITLE "2020.02.06-06:43.22:291678"
INDEX 00 44:21:24
INDEX 01 44:21:72

TRACK 99 AUDIO
TITLE "2020.02.06-06:43.34:031528"
INDEX 00 44:33:07
INDEX 01 44:33:52

TRACK 100 AUDIO
TITLE "2020.02.06-06:43.46:171340"
INDEX 00 44:45:04
INDEX 01 44:45:63

TRACK 101 AUDIO
TITLE "2020.02.06-06:43.58:252839"
INDEX 00 44:52:72
INDEX 01 44:57:69

TRACK 102 AUDIO
TITLE "2020.02.06-06:44.30:871433"
INDEX 00 45:04:69
INDEX 01 45:30:40

TRACK 103 AUDIO
TITLE "2020.02.06-06:44.35:551469"
INDEX 00 45:34:72
INDEX 01 45:35:16

TRACK 104 AUDIO
TITLE "2020.02.06-06:44.52:891368"
INDEX 00 45:44:55
INDEX 01 45:52:42

TRACK 105 AUDIO
TITLE "2020.02.06-06:45.05:991414"
INDEX 00 45:59:40
INDEX 01 46:05:49

TRACK 106 AUDIO
TITLE "2020.02.06-06:45.21:852742"
INDEX 00 46:14:16
INDEX 01 46:21:39

TRACK 107 AUDIO
TITLE "2020.02.06-06:45.50:673302"
INDEX 00 46:27:37
INDEX 01 46:50:26

TRACK 108 AUDIO
TITLE "2020.02.06-06:45.56:575371"
INDEX 00 46:54:62
INDEX 01 46:56:18

TRACK 109 AUDIO
TITLE "2020.02.06-06:46.35:075376"
INDEX 00 47:07:59
INDEX 01 47:34:56

TRACK 110 AUDIO
TITLE "2020.02.06-06:46.44:111620"
INDEX 00 47:42:42
INDEX 01 47:43:58

TRACK 111 AUDIO
TITLE "2020.02.06-06:47.13:851571"
INDEX 00 48:02:06
INDEX 01 48:13:39

TRACK 112 AUDIO
TITLE "2020.02.06-06:47.22:691388"
INDEX 00 48:20:49
INDEX 01 48:22:27

TRACK 113 AUDIO
TITLE "2020.02.06-06:47.41:831420"
INDEX 00 48:34:25
INDEX 01 48:41:37

TRACK 114 AUDIO
TITLE "2020.02.06-06:48.05:177284"
INDEX 00 48:48:18
INDEX 01 49:04:63

TRACK 115 AUDIO
TITLE "2020.02.06-06:48.48:815874"
INDEX 00 49:20:00
INDEX 01 49:48:36

TRACK 116 AUDIO
TITLE "2020.02.06-06:49.02:211486"
INDEX 00 49:54:71
INDEX 01 50:01:66

TRACK 117 AUDIO
TITLE "2020.02.06-06:49.08:932017"
INDEX 00 50:05:72
INDEX 01 50:08:45

TRACK 118 AUDIO
TITLE "2020.02.06-06:49.14:394529"
INDEX 00 50:11:67
INDEX 01 50:14:05

TRACK 119 AUDIO
TITLE "2020.02.06-06:50.34:451536"
INDEX 00 50:24:33
INDEX 01 51:34:09

TRACK 120 AUDIO
TITLE "2020.02.06-06:50.42:951585"
INDEX 00 51:39:42
INDEX 01 51:42:46

TRACK 121 AUDIO
TITLE "2020.02.06-06:50.57:192536"
INDEX 00 51:55:07
INDEX 01 51:56:64

TRACK 122 AUDIO
TITLE "2020.02.06-06:51.00:451933"
INDEX 00 52:00:04
INDEX 01 52:00:09

TRACK 123 AUDIO
TITLE "2020.02.06-06:51.30:951477"
INDEX 00 52:06:19
INDEX 01 52:30:46

TRACK 124 AUDIO
TITLE "2020.02.06-06:51.34:391534"
INDEX 00 52:34:00
INDEX 01 52:34:04

TRACK 125 AUDIO
TITLE "2020.02.06-06:51.37:631787"
INDEX 00 52:36:37
INDEX 01 52:37:22

TRACK 126 AUDIO
TITLE "2020.02.06-06:51.43:791446"
INDEX 00 52:43:09
INDEX 01 52:43:34

TRACK 127 AUDIO
TITLE "2020.02.06-06:52.05:338458"
INDEX 00 52:57:19
INDEX 01 53:05:00

TRACK 128 AUDIO
TITLE "2020.02.06-06:52.13:135616"
INDEX 00 53:06:30
INDEX 01 53:12:60

TRACK 129 AUDIO
TITLE "2020.02.06-06:52.46:035759"
INDEX 00 53:19:21
INDEX 01 53:45:53

TRACK 130 AUDIO
TITLE "2020.02.06-06:53.10:491386"
INDEX 00 53:54:41
INDEX 01 54:10:12

TRACK 131 AUDIO
TITLE "2020.02.06-06:53.21:255557"
INDEX 00 54:16:28
INDEX 01 54:20:69

TRACK 132 AUDIO
TITLE "2020.02.06-06:53.34:411864"
INDEX 00 54:28:65
INDEX 01 54:34:06

TRACK 133 AUDIO
TITLE "2020.02.06-06:53.39:831551"
INDEX 00 54:38:64
INDEX 01 54:39:37

TRACK 134 AUDIO
TITLE "2020.02.06-06:55.28:275868"
INDEX 00 54:50:07
INDEX 01 56:27:71

TRACK 135 AUDIO
TITLE "2020.02.06-06:55.36:051381"
INDEX 00 56:31:62
INDEX 01 56:35:54

TRACK 136 AUDIO
TITLE "2020.02.06-06:55.49:816258"
INDEX 00 56:48:52
INDEX 01 56:49:36

TRACK 137 AUDIO
TITLE "2020.02.06-06:56.49:175147"
INDEX 00 56:52:08
INDEX 01 57:48:63

TRACK 138 AUDIO
TITLE "2020.02.06-06:56.56:956187"
INDEX 00 57:53:26
INDEX 01 57:56:47

TRACK 139 AUDIO
TITLE "2020.02.06-06:59.16:571613"
INDEX 00 58:05:23
INDEX 01 60:16:18

TRACK 140 AUDIO
TITLE "2020.02.06-07:01.04:891834"
INDEX 00 60:23:18
INDEX 01 62:04:42

